<svg width="117" height="117" viewBox="0 0 117 117" fill="none" xmlns="http://www.w3.org/2000/svg">
<g id="Group">
<path id="Vector" d="M22.1604 0.218874C18.6786 0.851921 15.5864 2.48323 12.8838 5.18586C10.7168 7.37717 9.42639 9.4224 8.42813 12.3442L7.79508 14.219L7.72204 53.8331L7.67334 93.4716H9.62118H11.569V54.9287C11.569 28.6329 11.6421 15.9233 11.8368 14.925C12.2508 12.5389 13.736 9.81197 15.5864 7.96153C17.4369 6.08673 20.2856 4.55281 22.623 4.1389C24.5708 3.77368 43.3918 3.77368 45.3153 4.1389C50.9397 5.13716 55.6145 10.2259 56.2719 16.045L56.4423 17.5059H58.3901H60.338L60.1432 15.7529C59.7536 11.7111 58.0736 8.2537 55.0301 5.21021C52.8145 2.99454 50.7936 1.7041 47.9692 0.778877L46.0214 0.121482L34.6996 0.0727866C28.4665 0.0484386 22.8421 0.121482 22.1604 0.218874Z" fill="white"/>
<path id="Vector_2" d="M106.088 0.29219C105.236 0.779149 97.274 12.8557 97.274 13.6836C97.274 14.0731 97.5175 14.6088 97.8827 14.9497C98.4427 15.534 98.5888 15.5584 101.778 15.5584H105.065L105.017 58.8247L104.944 102.115L104.384 103.625C103.191 106.815 100.658 109.809 98.0288 111.197C94.8636 112.853 95.1557 112.828 82.6652 112.828C72.2686 112.828 71.246 112.78 70.0043 112.366C64.8425 110.613 61.1903 106.401 60.4599 101.288L60.1677 99.3153H58.2442H56.2964L56.4912 101.068C56.8807 105.11 58.5607 108.568 61.6042 111.611C63.8199 113.827 65.8408 115.093 68.6651 116.067L70.613 116.724H82.6652H94.7175L96.6653 116.067C99.4897 115.093 101.511 113.827 103.726 111.611C105.942 109.395 107.208 107.375 108.182 104.55L108.839 102.602L108.912 59.0682L108.961 15.5584H112.272C115.438 15.5584 115.584 15.534 116.144 14.9497C117.239 13.8783 117.045 13.4401 112.613 6.81744C108.742 0.99828 107.914 1.41636e-05 107.013 1.41636e-05C106.818 1.41636e-05 106.404 0.121754 106.088 0.29219ZM109.156 8.61919L111.152 11.6627H107.013H102.874L104.871 8.61919C105.991 6.96353 106.94 5.60004 107.013 5.60004C107.086 5.60004 108.036 6.96353 109.156 8.61919Z" fill="white"/>
<path id="Vector_3" d="M56.3696 23.3498V25.2976H58.3175H60.2653V23.3498V21.4019H58.3175H56.3696V23.3498Z" fill="white"/>
<path id="Vector_4" d="M51.1345 29.8021C50.5502 30.3621 50.5258 30.5326 50.5258 33.4056V36.4248L49.4058 36.863L48.3101 37.277L46.1675 35.183C43.051 32.1395 43.4649 31.9935 37.6944 37.7883C31.8996 43.5587 32.0457 43.1448 35.0892 46.2614L37.1831 48.404L36.7449 49.4996L36.2823 50.6196H33.2875C30.4387 50.6196 30.2683 50.644 29.7083 51.2283L29.0996 51.8127V58.411V65.0093L29.7083 65.5936C30.2683 66.178 30.4387 66.2023 33.2875 66.2023H36.2823L36.7449 67.3223L37.1831 68.418L35.0892 70.5606C32.0457 73.6772 31.8996 73.2632 37.6944 79.0337C43.4649 84.8285 43.051 84.6824 46.1675 81.6389L48.3101 79.545L49.4058 79.9589L50.5258 80.3972V83.4163C50.5258 86.2894 50.5502 86.4598 51.1345 87.0198L51.7189 87.6285H58.3172H64.9155L65.4998 87.0198C66.0842 86.4598 66.1085 86.2894 66.1085 83.4407V80.4459L67.2285 79.9833L68.3242 79.545L70.4668 81.6389C73.5833 84.6824 73.1694 84.8285 78.9399 79.0337C84.7347 73.2632 84.5886 73.6772 81.5451 70.5606L79.4512 68.418L79.8651 67.3223L80.3034 66.2023H83.3225C86.1956 66.2023 86.366 66.178 86.926 65.5936L87.5347 65.0093V58.411V51.8127L86.926 51.2283C86.366 50.644 86.1956 50.6196 83.3225 50.6196H80.3034L79.8651 49.4996L79.4512 48.404L81.5451 46.2614C84.5886 43.1448 84.7347 43.5587 78.9399 37.7883C73.1694 31.9935 73.5833 32.1395 70.4668 35.183L68.3242 37.277L67.2285 36.8387L66.1085 36.3761V33.3813C66.1085 30.5326 66.0842 30.3621 65.4998 29.8021L64.9155 29.1934H58.3172H51.7189L51.1345 29.8021ZM62.2128 35.743C62.2128 38.8109 62.4807 39.3709 64.2094 39.8822C64.7937 40.0526 65.9624 40.5152 66.8146 40.9048C67.6668 41.2944 68.6407 41.6109 68.9816 41.6109C69.3955 41.6109 70.1503 41.0509 71.5625 39.6631L73.559 37.7396L76.286 40.4665L78.9886 43.1935L77.0651 45.1657C74.8251 47.4301 74.7764 47.6248 75.8233 49.9136C76.2129 50.7657 76.6755 51.9344 76.846 52.5188C77.3573 54.2475 77.9173 54.5153 80.9851 54.5153H83.639V58.411V62.3067H80.9851C77.9173 62.3067 77.3573 62.5745 76.846 64.3032C76.6755 64.8875 76.2129 66.0562 75.8233 66.9084C75.4338 67.7606 75.1173 68.7345 75.1173 69.0754C75.1173 69.4893 75.6773 70.2441 77.0651 71.6563L78.9886 73.6528L76.2616 76.3798L73.5346 79.0824L71.5625 77.1589C69.2981 74.9189 69.1033 74.8702 66.8146 75.9172C65.9624 76.3067 64.7937 76.7694 64.2094 76.9398C62.4807 77.4511 62.2128 78.0111 62.2128 81.0789V83.7329H58.3172H54.4215V81.0789C54.4215 78.0111 54.1537 77.4511 52.425 76.9398C51.8406 76.7694 50.6719 76.3067 49.8197 75.9172C47.531 74.8702 47.3362 74.9189 45.0719 77.1589L43.0997 79.0824L40.3727 76.3798L37.6457 73.6528L39.5692 71.6563C40.9571 70.2441 41.5171 69.4893 41.5171 69.0754C41.5171 68.7345 41.2005 67.7606 40.811 66.9084C40.4214 66.0562 39.9588 64.8875 39.7884 64.3032C39.2771 62.5745 38.7171 62.3067 35.6492 62.3067H32.9953V58.411V54.5153H35.6492C38.7171 54.5153 39.2771 54.2475 39.7884 52.5188C39.9588 51.9344 40.4214 50.7657 40.811 49.9136C41.8579 47.6248 41.8092 47.4301 39.5692 45.1657L37.6457 43.1935L40.3484 40.4665L43.0753 37.7396L45.0719 39.6631C46.4841 41.0509 47.2388 41.6109 47.6528 41.6109C47.9936 41.6109 48.9675 41.2944 49.8197 40.9048C50.6719 40.5152 51.8406 40.0526 52.425 39.8822C54.1537 39.3709 54.4215 38.8109 54.4215 35.743V33.0891H58.3172H62.2128V35.743Z" fill="white"/>
<path id="Vector_5" d="M54.9329 43.1932C52.2546 43.7775 49.4302 45.3601 47.3607 47.4541C41.2737 53.5411 41.225 63.2559 47.2389 69.2455C50.2094 72.1916 53.472 73.7012 57.4407 73.9203C64.5503 74.3099 71.0756 69.7811 73.2425 62.915C73.9973 60.5046 73.9973 56.3167 73.2425 53.9063C70.7834 46.1636 62.8216 41.4888 54.9329 43.1932ZM61.1173 47.0888C65.3051 48.1845 68.5434 51.4471 69.639 55.6593C71.2217 61.722 67.3503 68.1011 61.1173 69.7324C55.0303 71.3151 48.6268 67.4437 46.9954 61.2107C44.8285 52.8837 52.7903 44.9219 61.1173 47.0888Z" fill="white"/>
<path id="Vector_6" d="M56.3696 93.4718V95.4197H58.3175H60.2653V93.4718V91.524H58.3175H56.3696V93.4718Z" fill="white"/>
<path id="Vector_7" d="M7.33264 97.611C5.79872 98.0005 3.6074 99.3153 2.53609 100.46C2.00044 101.044 1.19696 102.261 0.783041 103.162C0.0769501 104.648 0.00390625 105.013 0.00390625 107.131C0.00390625 109.322 0.0526022 109.541 0.904781 111.295C2.00044 113.51 3.41262 114.874 5.67698 115.945C7.16221 116.651 7.52743 116.724 9.62135 116.724C11.7153 116.724 12.0805 116.651 13.5657 115.945C15.8301 114.874 17.2423 113.51 18.3379 111.295C19.1901 109.541 19.2388 109.322 19.2388 107.107C19.2388 104.891 19.1901 104.672 18.3379 102.919C16.6823 99.6075 13.7605 97.6353 10.157 97.4649C9.13439 97.4162 7.8683 97.4892 7.33264 97.611ZM11.4231 101.555C13.517 102.188 15.4649 104.867 15.4649 107.107C15.4649 110.126 12.6405 112.95 9.62135 112.95C8.08743 112.95 6.84568 112.39 5.60394 111.124C3.12044 108.665 3.12044 105.548 5.60394 103.089C7.30829 101.361 9.13439 100.898 11.4231 101.555Z" fill="white"/>
</g>
</svg>
